<svg width="121" height="25" viewBox="0 0 121 25" fill="none" xmlns="http://www.w3.org/2000/svg">
<g clip-path="url(#clip0_2_3690)">
<path d="M5.48273 12.0546L2.78873 14.7496L0.0687256 12.0546L2.78773 9.33557L5.48273 12.0546ZM12.0687 5.46857L16.7087 10.1086L19.4287 7.39056L12.0687 0.0545654L4.70873 7.41457L7.42873 10.1326L12.0687 5.46857ZM21.3497 9.33557L18.6547 12.0546L21.3737 14.7736L24.0917 12.0546L21.3497 9.33557ZM12.0687 18.6406L7.42873 13.9766L4.70873 16.6956L12.0687 24.0546L19.4287 16.6946L16.7087 13.9766L12.0687 18.6406ZM12.0687 14.7506L14.7877 12.0306L12.0687 9.33657L9.34973 12.0546L12.0687 14.7496V14.7506ZM40.6627 15.0306V14.9846C40.6627 13.2266 39.7247 12.3356 38.2017 11.7496C39.1387 11.2346 39.9357 10.3896 39.9357 8.91357V8.86757C39.9357 6.80457 38.2717 5.46857 35.5997 5.46857H29.4827V18.6176H35.7407C38.7167 18.6406 40.6627 17.4216 40.6627 15.0316V15.0306ZM37.0527 9.40657C37.0527 10.3906 36.2557 10.7886 34.9667 10.7886H32.2957V7.99957H35.1547C36.3737 7.99957 37.0527 8.49157 37.0527 9.35957V9.40657ZM37.7797 14.6566C37.7797 15.6406 37.0067 16.0866 35.7397 16.0866H32.2957V13.2026H35.6467C37.1237 13.2026 37.7797 13.7426 37.7797 14.6326V14.6566ZM46.7327 18.6406V5.46857H43.8267V18.6176H46.7327V18.6406ZM62.2957 18.6406V5.46857H59.4357V13.5786L53.2717 5.46857H50.5997V18.6176H53.4597V10.2736L59.8347 18.6406H62.2947H62.2957ZM78.3257 18.6406L72.6787 5.39857H70.0077L64.3587 18.6406H67.3357L68.5307 15.6876H74.0857L75.2807 18.6406H78.3277H78.3257ZM73.0527 13.1326H69.5607L71.3187 8.86757L73.0527 13.1326ZM92.1317 18.6406V5.46857H89.2717V13.5786L83.1077 5.46857H80.4357V18.6176H83.2957V10.2736L89.6707 18.6406H92.1307H92.1317ZM107.061 16.5076L105.21 14.6566C104.178 15.5936 103.264 16.2026 101.741 16.2026C99.4907 16.2026 97.9207 14.3276 97.9207 12.0776V12.0076C97.9207 9.75757 99.5137 7.90657 101.741 7.90657C103.053 7.90657 104.085 8.46856 105.116 9.38257L106.967 7.24957C105.749 6.05457 104.272 5.21057 101.788 5.21057C97.7567 5.21057 94.9207 8.28057 94.9207 12.0076V12.0546C94.9207 15.8276 97.8027 18.8276 101.671 18.8276C104.202 18.8516 105.702 17.9606 107.061 16.5076ZM119.413 18.6406V16.0626H112.264V13.2966H118.475V10.7186H112.264V8.04657H119.319V5.46857H109.405V18.6176H119.413V18.6406Z" fill="#F0B90B"/>
</g>
<defs>
<clipPath id="clip0_2_3690">
<rect width="120" height="24" fill="white" transform="translate(0.0687256 0.0545654)"/>
</clipPath>
</defs>
</svg>
